<?xml version="1.0" encoding="utf-8"?>

<svg version="1.0" id="katman_1" xmlns="http://www.w3.org/2000/svg" xmlns:xlink="http://www.w3.org/1999/xlink" x="0px" y="0px"
	 viewBox="0 0 1024 1024" style="enable-background:new 0 0 1024 1024;" xml:space="preserve">
<style type="text/css">
	.st0{fill:#0E0C0E;}
</style>
<path class="st0" d="M902.55,576.44c0.19-1.12,0.33-2.24,0.43-3.36c2.34-27.18,3.11-53.42,0.45-80.03
	c-1.21-12.17-3.64-27.44-7.29-45.81c-1.28-6.44-2.87-12.99-4.78-19.64c-5.63-19.69-11.4-36.41-17.29-50.15
	c-10.18-23.71-22.21-45.9-36.08-66.55c-5.88-8.75-12.7-18.09-20.47-28.02c-4.08-5.22-8.3-10.23-12.67-15.03
	c-20.74-22.85-43.44-43.21-68.11-61.07c-41.54-30.08-87.22-50.84-137.03-62.28c-6.81-1.56-13.68-2.96-20.59-4.21
	c-42.49-7.63-84.34-7.99-125.55-1.07c-9.39,1.57-19.53,3.62-30.4,6.14c-6.88,1.59-13.3,3.3-19.27,5.15
	c-41.63,12.85-78.51,30.69-110.66,53.54c-30.07,21.37-56.25,45.45-78.52,72.24c-23.62,28.41-44.43,60.85-59.06,93.66
	c-6.14,13.76-11.87,29.01-17.2,45.74c-2.58,8.12-5.14,17.58-7.69,28.38c-7.62,32.39-10.96,64.79-10.02,97.18
	c0.02,0.56-0.39,1.04-0.95,1.11c-8.9,1.17-17.95,2.17-25.57,6.82c-0.19,0.12-0.44-0.01-0.46-0.23c-0.26-2.84-0.42-5.64-0.47-8.39
	c-0.47-25.62,1.08-50.09,4.65-73.41c2.47-16.1,6.61-34.15,12.42-54.15c9.77-33.65,23.89-65.91,42.37-96.79
	c5.86-9.79,10.83-17.62,14.92-23.48c9.62-13.82,19.74-27.49,30.87-39.95c11.98-13.41,21.77-23.72,29.37-30.95
	c9.76-9.28,21.18-18.41,32.12-27.24c4.03-3.25,8.13-6.36,12.3-9.32c63.56-44.99,134.06-70.46,211.5-76.39
	c61.35-4.71,121.51,4.47,180.48,27.54c9.41,3.68,20.57,8.71,33.46,15.08c22.06,10.9,41.9,23.95,61.77,38.42
	c5.51,4.01,10.79,8.11,15.84,12.28c27.64,22.81,53.32,49.06,74.28,77.98c12.73,17.55,23.52,33.94,33.45,52.98
	c10.51,20.17,19.39,40.64,26.65,61.43c12.71,36.4,20.05,74.65,22.04,114.76c1.1,22.27,0.63,43.75-2.45,64.36
	c-0.59,3.9-1.1,7.71-1.53,11.44c-0.11,0.92-0.8,1.66-1.7,1.83c-3.07,0.6-6.13,1.09-9.18,1.47c-1.67,0.21-3.26,0.77-4.75,1.7
	c-4.35,2.7-8.74,4.16-13.78,2.26c-7.37-2.77-4.25-10.93,0.77-13.9c0.85-0.51,1.76-0.93,2.72-1.28
	C902.26,577.1,902.48,576.83,902.55,576.44z"/>
<path class="st0" d="M866.09,585.76c0.22-1.2,0.4-2.37,0.55-3.51c6.67-50.89,2.91-101.31-11.3-151.25
	c-3.07-10.81-7.62-23.65-13.65-38.54c-3.27-8.06-8-18.08-14.21-30.05c-3.37-6.51-6.71-12.36-10-17.56
	c-10.99-17.39-20.73-31.27-29.22-41.65c-28.78-35.17-63.47-64.66-104.08-88.48c-36.47-21.39-78.1-35.14-119.68-42.03
	c-35.56-5.89-72.06-5.47-109.51,1.27c-47.45,8.55-91.3,25.95-131.57,52.22c-18.71,12.2-35.72,25.67-51.04,40.41
	c-11.4,10.96-22.56,22.51-32.58,34.82c-30.79,37.79-53.49,79.91-68.08,126.34c-8.63,27.46-13.79,56.2-15.48,86.23
	c-0.36,6.41-0.48,12.95-0.37,19.61c0.01,0.46-0.21,0.67-0.68,0.64c-8.37-0.63-15.95,0.38-22.73,3.03c-0.99,0.38-1.89,0.91-2.71,1.59
	c-0.32,0.26-0.8,0.04-0.81-0.37c-0.85-22.62,0.75-45.04,4.8-67.27c3.49-19.19,7-34.77,10.52-46.76c2.68-9.12,5.99-17.99,9.1-26.91
	c7.38-21.11,17.13-40.55,28.32-59.77c16.47-28.29,36.49-54.62,60.07-78.99c17.36-17.95,36.64-34.24,57.85-48.89
	c13.07-9.03,25.53-16.65,37.39-22.88c35.71-18.75,73.28-31.64,112.71-38.69c85.87-15.35,175.4,1.07,250.41,44.61
	c23.48,13.63,45.76,29.85,66.85,48.64c13.05,11.62,25.27,24.23,36.67,37.82c38.95,46.43,65.81,97.63,80.58,153.6
	c11.83,44.83,15.73,91.18,10.47,137.03c-0.44,3.86-1.15,7.43-2.16,11.11c-1.07,3.91-1.69,7.79-1.88,11.66
	c-0.05,0.92-0.36,1.71-0.94,2.38c-0.25,0.28-0.57,0.44-0.94,0.49c-4.49,0.59-10.42,1.13-14.35,3.54
	c-5.59,3.42-10.85,2.78-15.78-1.92c-0.27-0.26-0.44-0.58-0.5-0.95c-0.66-4.05,3.31-9.49,7.34-9.98
	C865.82,586.31,866.03,586.11,866.09,585.76z M183.29,373.42c-0.27,0.38-0.28,0.75-0.03,1.1c0.15,0.21,0.48,0.17,0.57-0.08
	c0.11-0.31,0.11-0.63,0-0.95C183.74,373.26,183.43,373.22,183.29,373.42z"/>
<path class="st0" d="M294.28,499.99c-5.86-12.65,11.43-21.35,18.38-9.79c4.99,8.3,9.88,16.26,14.69,23.89
	c0.95,1.51,1.21,1.39,0.78-0.34c-2.01-8.11-3.66-16.06-4.93-23.83c-0.47-2.93-0.63-5.97-0.46-9.1c0.57-10.35,9.91-16.14,19.27-17.47
	c0.21-0.03,0.39,0.17,0.33,0.38c-1.47,5.38-1.54,11.25-0.23,17.61c2.39,11.59,5.18,22.79,8.38,33.62c0.35,1.19,0.47,1.17,0.36-0.07
	c-0.95-10.61-1.37-21.22-1.25-31.81c0.07-6.67,1.14-16.01,5.32-21.51c7.16-9.41,17.01-13.7,29.55-12.85
	c3.16,0.21,5.54,1.35,7.15,3.44c2.03,2.62,0.99,6.3-0.02,9.16c-2.67,7.57-5.28,15.5-7.85,23.81c-0.43,1.39-0.3,1.44,0.39,0.17
	c2.26-4.19,5.18-8.04,7.67-12.17c5.07-8.44,8.61-14.17,10.61-17.2c5.34-8.11,12.13-14.74,20.36-19.89c0.61-0.38,0.81-0.23,0.6,0.46
	c-3.01,9.79-5.54,19.35-8.9,28.86c-3.55,10.09-6.94,20.12-10.15,30.08c-0.43,1.31-0.22,1.42,0.61,0.33
	c2.11-2.76,4.26-5.75,6.46-8.98c3.6-5.29,6.65-10.81,9.15-16.56c4.13-9.51,6.29-21.22,8.97-31.54c2.15-8.28,5.33-15.88,12.66-20.72
	c0.68-0.45,0.62-0.72-0.19-0.81c-5.05-0.56-9.75-1.59-13.66-5.01c-4.68-4.09-7.38-9.53-8.09-16.32c-0.05-0.5-0.24-0.56-0.57-0.18
	c-0.97,1.1-1.79,2.09-3.19,2.68c-8.75,3.66-19.28,0.97-18.96-10.14c0.8-27.83,0.99-57.65,0.56-89.47c-0.01-0.51-0.26-0.76-0.77-0.75
	l-3.29,0.05c-0.47,0.01-0.84,0.39-0.84,0.86c0.1,26.86,0.05,55.16-0.16,84.89c0,0.05-0.01,0.09-0.03,0.12
	c-0.34,0.67-0.85,0.85-1.54,0.56c-8.7-3.66-11.8-20.9-12.56-29.67c-1.05-12.07-1.34-21.81-0.87-29.21
	c0.35-5.57,3.21-9.26,8.56-11.08c0.64-0.22,1.07-0.81,1.09-1.48c0.11-3.88,0.1-7.66-0.01-11.33c-0.16-5,1.13-8.87,5.58-11.44
	c0.73-0.43,1.18-1.22,1.17-2.07c-0.13-9.35,1.76-18.34,5.67-26.97c0.15-0.34,0.15-0.68,0-1.02c-2.93-6.66-0.92-11.92,6.03-15.79
	c1.19-0.66,2.15-1.54,2.89-2.64c5.23-7.79,12-15.56,20.3-23.3c4.9-4.57,10.37-8.62,16.4-12.15c21.96-12.83,45.79-18.8,71.48-17.92
	c23.82,0.82,45.6,8.27,65.33,22.35c10.81,7.72,21.47,19.22,29.47,31.42c1.63,2.49,4.47,2.35,6.29,4.46
	c3.62,4.17,4.25,8.74,1.89,13.71c-0.13,0.28-0.13,0.56,0,0.84c4.16,8.67,5.24,17.93,5.63,27.43c0.02,0.57,0.36,1.08,0.88,1.32
	c9.12,4.25,4.59,15.43,5.81,23.19c0.06,0.38,0.26,0.66,0.59,0.85c1.83,1,4.09,1.8,5.52,3.27c2.24,2.31,3.41,5.08,3.52,8.31
	c0.39,11.85-0.19,23.45-1.74,34.82c-0.65,4.77-1.87,9.58-3.66,14.43c-1.52,4.12-4.32,8.42-8.66,10.07
	c-0.45,0.17-0.94-0.16-0.94-0.64c-0.29-25.47-0.28-53.88,0.03-85.25c0.01-0.79-0.38-1.19-1.17-1.2l-2.74-0.01
	c-0.61-0.01-0.91,0.29-0.92,0.9c-0.17,24.78-0.1,49.13,0.21,73.04c0.09,6.76,0.86,13.73-0.09,20.47c-0.37,2.58-1.97,4.65-4.8,6.2
	c-4.86,2.68-12.9,2.4-17.06-2.18c-0.31-0.35-0.5-0.29-0.55,0.18c-1.13,10.01-6.16,17.96-16.11,21.16c-0.53,0.17-0.55,0.39-0.06,0.65
	c0.8,0.42,1.7,1.06,2.29,1.74c7.83,9.01,10.2,21.39,11.63,33.06c1.02,8.26,1.88,17.15,2.58,26.67c0.34,4.65,0.78,9.41,2.16,13.79
	c2.9,9.19,6.41,17.98,10.54,26.37c2.2,4.46,5.15,8.68,7.46,13.13c0.87,1.67,1.11,1.59,0.73-0.26c-1.76-8.68-3.32-18.3-5.09-26.53
	c-4.05-18.82-8.17-37.53-12.38-56.13c-0.25-1.1-1.06-2.6-0.96-4.08c0.03-0.41,0.19-0.47,0.48-0.17
	c10.55,10.83,19.34,23.15,26.35,36.95c7.32,14.38,12.65,29.27,17.68,44.3c0.34,1.01,0.46,0.99,0.35-0.07
	c-1.45-14.37-4.46-28.2-9.05-41.47c-1.8-5.21-4.61-10.4-7.07-15.44c-0.12-0.26,0.14-0.53,0.4-0.42
	c10.78,4.62,21.36,10.2,30.13,18.04c2.49,2.23,5.3,5.4,4.51,8.98c-1.01,4.62-1.83,9.23-2.45,13.82c-0.03,0.21,0.06,0.3,0.27,0.28
	l0.27-0.03c0.03,0,0.05-0.02,0.06-0.06c1.24-7.78,5.74-15.92,15.17-12.74c9.57,3.22,12.84,14.31,11.2,23.62
	c-1.48,8.41-3.9,16.61-7.27,24.6c-0.93,2.22-0.69,2.35,0.72,0.4c7.09-9.82,12.31-19.04,15.68-27.65c1.91-4.88,3.58-7.92,5.01-9.11
	c7.81-6.5,15.81,2.1,20.81,8.45c3.27,4.15,6.02,8.28,8.24,12.39c10.99,20.34,16.92,42.97,20.59,66.02
	c1.76,11.06,3.43,22.35,5.01,33.86c0.05,0.36,0.25,0.5,0.6,0.41c16.24-3.88,32.69-6.54,48.78-10.1c0.22-0.05,0.27-0.17,0.16-0.36
	c-2.96-5.01-4.25-12.58,1.55-16.12c6.7-4.1,13.18-1.44,18.19,3.65c3.43,3.47,7.03,6.54,10.8,9.21c0.25,0.18,0.6,0.02,0.64-0.29
	c0.35-3.05,0.98-5.97,1.89-8.76c1.83-5.62,7.03-10.14,13.26-7.82c3.07,1.14,5.98,2.99,8.73,5.55c0.28,0.27,0.61,0.35,0.99,0.26
	c16.98-3.95,33.66-7.81,50.04-11.59c10.63-2.45,22.86-5.17,36.69-8.16c3.03-0.65,6.07-0.92,9.13-0.8c3.79,0.15,5.46,4.06,5.86,7.3
	c1.75,14,4.27,27.96,7.54,41.87c1.27,5.38,0.32,10.71-5.99,12c-18.78,3.84-36.62,7.28-53.51,10.32c-0.85,0.15-1.39,0.64-1.63,1.45
	c-1.51,5.09-2.82,8.84-2.5,13.37c0.38,5.48-2.42,8.22-6.84,10.71c-0.95,0.53-1.49,1.65-1.87,2.63
	c-8.43,21.48-19.08,42.53-31.94,63.14c-38.16,61.17-88.19,109.39-150.09,144.64c-3.33,1.9-6.77,3.74-10.31,5.52
	c-4.58,2.3-8.97,4.89-13.63,7.06c-21.31,9.93-41.07,17.73-59.26,23.4c-59.79,18.63-121.55,23.55-185.3,14.78
	c-6.33-0.87-12.87-1.98-19.62-3.34c-64.44-12.97-122.76-39.11-174.95-78.44c-7.98-6.01-16.6-13.1-25.87-21.29
	c-3.92-3.46-12.01-11.43-24.28-23.9c-4.48-4.55-8.81-9.33-12.99-14.32c-9.02-10.79-16.95-20.84-23.79-30.15
	c-8.34-11.37-16.79-23.82-24.09-36.71c-13.43-23.73-24.75-47.51-33.96-71.32c-0.49-1.25-1.38-2.19-2.5-2.89
	c-15.32-9.64-28.74-21.5-37.98-36.41c-4.31-6.97-6.93-14.11-7.84-21.44c-2.48-20,7.22-39.41,26.01-47.44
	c5.63-2.41,12.1-3.86,19.39-4.36c17.73-1.23,34.47,2.06,50.24,9.86c0.81,0.4,1.6,0.89,2.36,1.46c0.06,0.05,0.15,0.04,0.2-0.02
	c0.05-0.06,0.05-0.15-0.01-0.2c-7.57-7.23-16.84-11.89-26.2-16.85c-0.38-0.21-0.42-0.47-0.13-0.78c0.53-0.55,1.17-0.92,1.92-1.09
	c19.65-4.55,38.77,3.39,56.32,11.85c1.49,0.72,2.71,1.87,4.12,2.71c0.54,0.32,0.61,0.24,0.21-0.25c-0.38-0.46-0.96-0.78-1.38-1.24
	c-7.79-8.59-16.79-15.2-26.98-19.83c-0.72-0.33-1.48-0.55-2.27-0.67c-0.31-0.05-0.42-0.45-0.18-0.65c2.41-2.03,5.43-3.55,9.07-4.56
	c22.63-6.28,46.57-2,68.72,6.55c0.72,0.28,0.81,0.14,0.27-0.42c-8-8.13-17.09-14.07-27.27-17.82c-0.3-0.11-0.35-0.52-0.08-0.7
	c4.45-2.86,9.32-4.8,14.61-5.81c16.04-3.09,34.08-0.9,49.02,6.92c1.59,0.83,1.77,0.6,0.53-0.7c-4.43-4.63-9.03-9.38-13.81-14.23
	c-2.5-2.54-4.77-5.81-0.37-8.51c8.03-4.94,18.93-2.4,25.68,3.45C294.43,500.58,294.52,500.5,294.28,499.99z M428.66,240.97
	c5.57-10.53,13.73-16.73,23.47-23.11c11.82-7.75,24.64-12.92,38.45-15.51c5.77-1.09,13.18-1.73,18.7,0.65
	c0.34,0.15,0.69,0.17,1.05,0.08c2.95-0.76,5.81-1.89,8.89-2.03c7.59-0.33,15.58,0.9,23.98,3.7c30.4,10.11,54.94,33.66,58.87,66
	c0.43,3.57,0.73,7.11,0.9,10.6c0.02,0.36,0.36,0.62,0.71,0.54c5.51-1.19,10.47-1.7,14.78,2.68c0.35,0.36,0.51,0.29,0.47-0.21
	c-0.59-6.9-2.24-13.51-4.94-19.83c-0.2-0.47-0.61-0.82-1.11-0.95c-6.79-1.72-10.39-7.97-8.16-14.75c0.54-1.64-0.24-3.43-1.24-4.7
	c-3.54-4.46-7.16-9.26-11.03-13.28c-21.14-21.97-49.56-33.7-80.44-33.68c-21.6,0.01-41.92,5.38-60.95,16.11
	c-13.88,7.83-25.47,18.7-34.77,32.63c-0.35,0.51-0.42,1.1-0.21,1.76c1.97,6.23,0.57,11.02-4.18,14.37c-1.29,0.91-3.19,1.34-4.7,1.91
	c-0.34,0.13-0.59,0.35-0.76,0.68c-3.25,6.31-5.16,13.13-5.73,20.47c-0.05,0.63,0.13,0.7,0.54,0.21c3.37-4.04,9.62-5.36,15.23-3.59
	c0.48,0.15,0.74-0.02,0.77-0.53c0.73-12.22,3.27-25.01,10.63-34.28c4.06-5.11,8.86-9.86,14.39-14.27c0.9-0.72,0.81-0.87-0.26-0.44
	c-4.84,1.89-9.08,5.61-12.95,9.08C428.35,241.93,428.21,241.82,428.66,240.97z M503.47,250.05c0.31,2.36,0.56,2.36,0.76-0.01
	c0.43-5.08,1.17-9.88,2.2-14.41c0.01-0.03-0.01-0.05-0.03-0.06c-0.03-0.01-0.06,0-0.07,0.02
	C503.84,240.63,502.88,245.45,503.47,250.05z M529.95,274.11c-8.1-8.01-13.77-18.97-14.93-30.45c-0.07-0.69-0.15-0.69-0.26,0
	c-1.45,9.8,0.93,18.2,7.14,25.21c2.72,3.06,6.59,5.26,10.02,7.6c0.55,0.37,0.6,0.32,0.15-0.17
	C531.39,275.57,530.68,274.84,529.95,274.11z M564.58,286.77c0.03,0.11,0.04,0.22,0.04,0.32c0,0.08,0,0.12-0.01,0.11
	c-0.01-0.04,0.01-0.07,0.04-0.09c0.03-0.01,0.05-0.04,0.05-0.08c0.25-9.32-2.65-17.59-8.68-24.82c-4.43-5.29-8.67-10.46-12.72-15.49
	c-0.95-1.19-1.14-1.07-0.57,0.34c3.82,9.4,9.56,17.33,15.34,25.19C561.21,276.52,563.38,281.36,564.58,286.77z M406.49,289.61
	c-2.76-0.1-3.21,2.78-3.22,4.84c-0.06,17.75-0.04,35.77,0.05,54.05c0.03,5.73,0.55,12.23,1.58,19.51c0.35,2.47,1.1,4.61,1.62,7.03
	c0.24,1.13,0.38,1.12,0.42-0.03c0.22-6.31,0.74-12.61,0.83-19.02c0.3-20.69,0.3-40.77,0.01-60.24c-0.02-1.24-0.23-3.09-0.62-5.55
	C407.1,289.82,406.88,289.62,406.49,289.61z M614.39,370.94c1.86-9.03,2.65-17.67,2.66-26.87c0.02-15.65,0.02-32.74,0.01-51.27
	c-0.01-1.28-0.82-2.42-2.03-2.84l-0.51-0.18c-1.45-0.5-2.17,0.02-2.18,1.55c-0.09,18.18-0.13,35.8-0.1,52.86
	c0.02,9.67,0.52,19.74,0.9,29.98c0.03,0.78,0.17,0.8,0.4,0.06C613.86,373.23,614.14,372.13,614.39,370.94z M516.79,331.43
	c0.55,10.8,4.84,19.78,12.85,26.95c8.32,7.44,21.14,10.61,32.4,7.68c29.64-7.7,36.76-47.05,11.77-64.85
	c-6.15-4.37-12.88-6.6-20.2-6.69c-18.77-0.23-31.8,11.61-36.11,29.23c-0.09,0.35-0.31,0.51-0.67,0.48
	c-4.38-0.37-9.15-0.41-14.31-0.13c-0.22,0.01-0.41-0.14-0.46-0.35c-1.38-6.59-4.54-12.57-9.48-17.92
	c-7.08-7.67-16.61-11.57-27.01-11.34c-12.15,0.26-21.77,5.47-28.87,15.62c-16.52,23.61,0.35,57.04,29.54,57.19
	c20.93,0.11,35.05-15.99,36.48-35.84c0.03-0.39,0.23-0.58,0.62-0.59l12.64-0.2C516.49,330.66,516.76,330.92,516.79,331.43z
	 M385.26,339.74c0.08,0.19,0.12,0.4,0.11,0.63c0,0.01,0,0.01,0,0.01s0,0,0-0.01c-0.03-0.01-0.04-0.04-0.04-0.08
	c0.13-2.36,0.57-5.86,2-7.93c1.72-2.49,0.74-7.06-0.3-9.58c-0.36-0.87-1.47-1.14-2.19-0.53
	C380.39,326.03,383.47,335.13,385.26,339.74z M636.69,333.99c-0.1,0.11-0.13,0.24-0.08,0.39c0.07,0.26,0.18,0.29,0.35,0.08
	c1.77-2.21,1.05-6.71,0.42-9.21c-0.48-1.88-1.68-2.87-3.61-2.97c-0.49-0.02-0.94,0.3-1.06,0.78c-0.93,3.65-0.75,7.02,0.55,10.12
	c0.93,2.23,0.69,4.2,0.85,6.51c0.05,0.79,0.21,0.81,0.46,0.06c0.54-1.59,0.98-3.4,1.31-5.43c0.07-0.41,0.32-0.58,0.75-0.53
	C636.78,333.81,636.8,333.88,636.69,333.99z M451.06,489.81c3.59,7.32,6.6,14.52,9.02,21.59c0.63,1.83,0.81,1.78,0.54-0.13
	c-1.08-7.77-2.83-15.69-5.24-23.78c-1.2-4.01-3.9-11.06-8.11-21.17c-0.35-0.84-0.52-2.13-0.68-3.05c-0.11-0.57-0.34-0.63-0.69-0.17
	c-2.4,3.11-5.44,5.68-9.13,7.69c-0.32,0.18-0.35,0.63-0.05,0.84C442.21,475.45,446.99,481.51,451.06,489.81z M555.31,537.75
	c-0.02,0.05,0,0.11,0.05,0.14c0.05,0.03,0.12,0.02,0.15-0.03c9.77-13.21,20.44-23.24,32.02-30.11c0.49-0.29,0.5-0.59,0.03-0.9
	c-4.11-2.73-6.25-6.36-6.44-10.89c-0.05-1.09-0.27-1.13-0.68-0.11c-1.16,2.94-2.56,5.67-4.42,8.21
	C568.19,514.76,559.81,525.63,555.31,537.75z M111.13,560.29c-13.28-2.7-26.38,1.14-34.09,12.6c-0.36,0.54-0.29,0.6,0.21,0.19
	c9.69-7.98,25.54-10.83,37.59-10.24c1.77,0.09,3.58,0.17,5.44,0.26c1.92,0.09,1.95-0.11,0.1-0.62
	C117.35,561.66,114.27,560.93,111.13,560.29z M119.55,582.02c10.63-4.14,21.99-5.15,34.1-3.02c0.89,0.15,0.93,0.02,0.14-0.4
	c-3.21-1.69-6.48-2.97-9.81-3.85c-10.33-2.73-22.6,0.06-29.15,8.93c-0.37,0.49-0.26,0.64,0.32,0.44
	C116.7,583.58,118.04,582.61,119.55,582.02z M945.5,601.41c0-2.88-2.34-5.22-5.22-5.22c-2.88,0-5.22,2.34-5.22,5.22
	c0,2.88,2.34,5.22,5.22,5.22C943.16,606.63,945.5,604.29,945.5,601.41z M286.21,616.51c-20.07-8.91-43.52-12.38-65-7.09
	c-6.75,1.66-12.53,4.21-17.34,7.66c-0.55,0.39-0.66,1.17-0.23,1.69c14.87,18.41,31.59,34.65,50.18,48.73
	c2.53,1.91,3.16,4.72,3.92,7.58c0.49,1.86,2.13,2.68,3.69,3.51c2.77,1.48,5.51,2.8,8.24,3.95c6.73,2.85,13.38,5.74,19.94,8.67
	c3.25,1.45,6.59,3.18,10.01,5.17c9.79,5.71,16.14,14.3,22.75,23.51c0.33,0.45,0.87,0.69,1.43,0.62c1.45-0.19,2.78-0.41,3.99-0.66
	c13.85-2.85,27.16-5.49,39.92-7.94c1.21-0.23,2.04-0.9,2.49-1.99c5.86-14.28,16.16-22.6,30.91-24.97
	c6.33-1.01,12.36-0.57,18.09,1.33c5.81,1.93,11.09,5.14,15.83,9.61c0.21,0.19,0.45,0.26,0.73,0.21l80.07-16.08
	c0.44-0.09,0.57-0.33,0.38-0.74c-6.29-13.77-13.01-26.44-20.16-38.02c-6.41-10.39-14.02-19.3-22.81-26.74
	c-16.59-14.03-35.65-17.95-57.19-11.76c-14.78,4.24-26.93,13.42-38.72,23.67c-3.92,3.41-8.06,6.29-12.43,8.64
	c-14.46,7.8-30.05,5.92-44.5-1.15C309.23,628.46,297.83,621.67,286.21,616.51z M912.74,609.18c0-2.94-2.39-5.33-5.33-5.33
	s-5.33,2.39-5.33,5.33s2.39,5.33,5.33,5.33S912.74,612.12,912.74,609.18z M877.09,612.66c-1.67-1.93-4.6-2.14-6.53-0.47l-0.56,0.48
	c-1.93,1.68-2.14,4.6-0.47,6.53l0.96,1.1c1.67,1.93,4.6,2.14,6.53,0.47l0.56-0.48c1.93-1.68,2.14-4.6,0.47-6.53L877.09,612.66z
	 M407.42,718.57c13-3.92,26-5.97,38.87-9.08c11.98-2.9,24.08-4.93,35.62-7.55c10.39-2.36,20.69-4.52,30.89-6.47
	c7.57-1.45,14.11-2.74,19.62-3.89c18.41-3.84,35.42-7.43,51.04-10.78c43.94-9.39,87.88-18.8,131.81-28.22
	c25.03-5.37,45.77-9.89,62.2-13.58c5.9-1.33,12-1.43,17.26-4.44c3.27-1.87,7.09-2.47,10.76-1.88c3.38,0.54,6.88-0.85,9.96-1.92
	c0.11-0.03,0.13-0.09,0.07-0.18l-3.39-5.33c-0.07-0.13-0.18-0.17-0.33-0.14c-26.83,5.85-53.66,11.35-80.48,16.51
	c-29.71,5.72-59.35,11.84-89.26,17.72c-6.31,1.24-12.85,2.55-19.6,3.93C551.01,677.86,479.85,692.33,409,706.7
	c-1.35,0.27-2.64,0.69-3.87,1.27c-0.34,0.16-0.48,0.43-0.43,0.81c0.48,3.38,1.29,6.59,2.43,9.64
	C407.18,718.54,407.3,718.6,407.42,718.57z M951.78,635.68c0-2.92-2.37-5.29-5.29-5.29s-5.29,2.37-5.29,5.29s2.37,5.29,5.29,5.29
	S951.78,638.6,951.78,635.68z M850.31,638.12c3.28,5.85,6.82,12.06,8.96,18.37c0.41,1.21,0.64,1.17,0.69-0.1
	c0.13-3.25,0.04-6.52-0.27-9.81c-0.43-4.42-7.18-10.09-10.62-13.07c-0.45-0.39-0.61-0.3-0.46,0.28
	C848.99,635.32,849.56,636.77,850.31,638.12z M814.71,641.59c0.21,0.3,0.57,0.44,0.92,0.37l3.95-0.8c0.6-0.12,0.91-0.78,0.62-1.31
	l-2.15-3.93c-0.19-0.36-0.61-0.54-1-0.44l-4.32,1.06c-0.61,0.15-0.88,0.86-0.53,1.38L814.71,641.59z M919.53,642
	c0-2.97-2.4-5.37-5.37-5.37c-2.97,0-5.37,2.4-5.37,5.37s2.4,5.37,5.37,5.37C917.13,647.37,919.53,644.97,919.53,642z M450.06,713.81
	c-13.73,3.92-27.99,6.12-41.81,9.58c-0.22,0.06-0.35,0.27-0.3,0.48l3.3,14.76c0.07,0.32,0.39,0.52,0.71,0.44
	c10.86-2.85,21.64-5.38,32.34-7.59c6.73-1.39,13.22-2.87,19.47-4.45c10.83-2.75,21.79-5.29,32.9-7.64
	c11.36-2.41,23.42-5.88,35.09-8.62c46.42-10.91,94.68-22.21,144.78-33.88c36.79-8.58,73.56-17.14,110.33-25.69
	c0.13-0.03,0.2-0.1,0.22-0.23c0.5-2.68,0.86-5.69,1.07-9.03c0-0.05-0.02-0.06-0.07-0.05c-34.81,7.61-69.66,15.12-104.55,22.54
	c-6.53,1.39-13.04,2.8-19.54,4.25c-50.11,11.15-100.31,21.84-150.61,32.05c-3.19,0.65-6.69,0.92-9.64,1.58
	c-11.74,2.61-23.34,5.16-34.79,7.66C462.65,711.35,456.29,712.04,450.06,713.81z M886.35,644.45c-1.37-1.89-4.02-2.3-5.91-0.93
	l-0.74,0.54c-1.89,1.37-2.3,4.02-0.93,5.91l1.07,1.47c1.37,1.89,4.02,2.3,5.91,0.93l0.74-0.54c1.89-1.37,2.3-4.02,0.93-5.91
	L886.35,644.45z M821.78,644.65l-3.55,1.94c-0.53,0.28-0.72,0.95-0.43,1.48l1.43,2.6c9.22,16.85,17.88,29.86,19.33,29.07l0.19-0.11
	c1.46-0.79-4.84-15.1-14.07-31.95l-1.42-2.6C822.97,644.55,822.3,644.36,821.78,644.65z M415.06,754.52
	c0.19,0.49,0.55,0.71,1.08,0.66c1.63-0.15,3.24-0.41,4.85-0.78c25.05-5.82,51.74-12.11,80.06-18.87
	c35.73-8.53,73.84-17.84,114.33-27.93c8.82-2.2,17.86-4.15,26.52-6.35c26.91-6.85,53.99-13.72,81.26-20.59
	c6.13-1.55,12.62-3.24,19.49-5.09c15.65-4.21,30.44-8.06,44.35-11.55c0.25-0.06,0.82-0.24,1.72-0.54c0.35-0.11,0.47-0.35,0.38-0.7
	l-1.73-6.34c-0.1-0.35-0.33-0.49-0.69-0.4c-21.84,5.41-43.82,10.6-65.93,15.58c-6.8,1.53-13.29,3.04-19.47,4.51
	c-16.91,4.04-33.83,8-50.78,11.87c-6.22,1.42-12.71,2.95-19.46,4.59c-15.67,3.81-31.44,7.53-47.3,11.14
	c-6.73,1.53-13.21,3.05-19.46,4.56c-36.33,8.76-72.68,17.39-109.05,25.9c-13.3,3.12-28.33,6.32-42.71,9.74
	c-0.25,0.06-0.41,0.3-0.37,0.56C412.69,747.62,413.66,750.97,415.06,754.52z M902.24,660.02c-0.07-0.17-0.19-0.25-0.38-0.22
	c-5.39,0.86-10.83,2.18-16.3,3.97c-0.18,0.06-0.26,0.27-0.17,0.43c2.07,3.91,3.76,8.08,5.05,12.5c0.04,0.14,0.18,0.22,0.32,0.19
	l0.25-0.05c0.04-0.01,0.06-0.04,0.05-0.08c-0.53-3.61,0.32-6.38,2.57-8.32c2.79-2.41,6.28-3.44,10.48-3.11
	c0.12,0.01,0.16-0.05,0.11-0.16L902.24,660.02z M799.44,709.32c1.12-2.74,2.7-5.28,4.06-7.94c0.84-1.63,0.89-3.25,0.17-4.93
	c-4.02-9.41-8.35-18.73-13-27.95c-0.08-0.16-0.27-0.23-0.44-0.18c-8.71,2.65-17.64,4.97-26.81,6.96c-0.46,0.1-0.76,0.55-0.68,1.02
	c0.54,2.96,1.37,5.9,2.5,8.81c3.77,9.77,6.79,19.86,9.05,30.29c1.25,5.75,4.06,9.99,6.81,15.02c1.45,2.66,1.21,4.93-0.72,6.82
	c-6.44,6.27-13.71,13.08-17.92,20.91c-0.4,0.75-0.3,0.82,0.31,0.23c0.85-0.84,1.49-1.74,2.51-2.44c7.77-5.35,15.56-11.11,23.39-17.3
	c2.34-1.85,4-3.7,4.47-6.8C794.32,724.21,796.42,716.7,799.44,709.32z M329.09,725.6c4,2.82,9.76,6.24,14.7,5.74
	c2.44-0.25,4.87-0.62,7.28-1.11c7.32-1.48,14.59-2.93,21.8-4.36c0.27-0.05,0.38-0.22,0.35-0.49l-1.19-8.97
	c-0.03-0.25-0.17-0.34-0.42-0.29l-42.38,8.77C328.89,724.96,328.81,725.4,329.09,725.6z M242.34,801.14
	c-0.26,0.1-0.55,0.03-0.74-0.16c-12.27-12.31-23.93-25.72-34.97-40.22c-7.33-9.65-14.76-19.89-22.29-30.73
	c-0.78-1.13-1.79-1.86-3.03-2.21c-2.22-0.62-4.37-1.27-6.45-1.95c-0.24-0.08-0.47,0.14-0.4,0.38c0.93,3.13,2.26,6.06,4,8.79
	c10.71,16.84,22.55,32.92,35.54,48.23c21.78,25.69,46.33,47.87,73.65,66.54c14.63,10,29.15,18.67,45.24,27.34
	c6.35,3.42,12.28,6.39,17.79,8.9c41.25,18.82,85.82,29.71,131.26,33.59c27.73,2.37,55.54,1.5,83.43-2.61
	c6.45-0.95,12.9-2.01,19.34-3.18c40.95-7.41,79.32-20.88,115.11-40.41c17.16-9.37,33.12-19.56,47.89-30.59
	c7.06-5.27,13.31-10.31,18.75-15.11c26.3-23.23,51.26-49.04,70.83-78.17c0.25-0.36,0.41-0.78,0.48-1.22
	c0.36-2.42-0.37-3.79-2.18-4.1c-0.66-0.11-1.34,0.09-1.83,0.55c-4.36,4.09-7.96,7.95-10.8,11.58
	c-15.06,19.26-32.28,37.82-51.65,55.68c-40.93,37.71-88.33,65.03-142.2,81.96c-18.61,5.85-39.19,10.52-61.72,14
	c-36.11,5.59-72.62,6.27-107.81,0.75c-23.38-3.67-43.96-8.26-61.73-13.78c-17.33-5.39-34.41-12.15-51.24-20.28
	c-0.36-0.18-0.43-0.65-0.15-0.93c10.95-10.84,21.21-20.53,30.77-29.07c9.38-8.37,18.33-13.44,31.42-13.93
	c6.21-0.23,12.41,0.46,18.59,2.06c7.24,1.87,15.1,4.05,23.58,6.52c10.43,3.05,20.82,4.73,31.17,5.02
	c10.44,0.3,31.28-2.02,32.97-15.4c1.14-9.07-8.2-14.81-15.32-17.34c-5.15-1.83-10.05-3.65-14.7-5.47
	c-16.43-6.42-30.55-20.77-33-38.43c-0.68-4.97-0.27-10.13,0.14-15.24c0.03-0.4-0.14-0.54-0.52-0.43l-8.09,2.41
	c-0.51,0.15-0.88,0.46-1.11,0.93c-3.79,7.77-9.5,13.45-17.13,17.05c-16.82,7.93-33.71,4.13-46.14-9.69
	c-0.39-0.43-0.98-0.61-1.55-0.47c-6.75,1.65-13.31,2.94-19.69,3.87c-0.34,0.05-0.43,0.22-0.26,0.52c2.5,4.4,4.66,8.89,6.48,13.47
	c2.76,6.92,2.16,12.9-1.8,17.94c-2.25,2.87-7.59,5.54-10.15,1.41c-5.61-9.07-12.48-17.81-20.61-26.21
	c-0.43-0.44-0.88-0.86-1.37-1.26c-0.79-0.66-1-0.51-0.64,0.45c0.76,2.05,1.87,4.09,3.33,6.12c3.26,4.55,6.48,9.01,10.14,13.14
	c2.97,3.37,6.33,7.56,6.33,12.04c-0.02,9.38-10.15,16.38-18.13,9.62c-3.07-2.59-6.09-4.98-9.08-7.15c-0.4-0.29-0.96-0.21-1.27,0.18
	c-3.75,4.81-6.68,9.79-13.93,8.61c-2.28-0.37-4.61-1.09-6.99-2.14c-0.62-0.27-1.12-0.13-1.51,0.43c-5.09,7.45-11.59,4.83-16.76-0.24
	c-11.57-11.36-22.46-23.48-32.67-36.37c-5.25-6.64-10.36-13.1-15.33-19.38c-0.07-0.1-0.17-0.14-0.29-0.11
	c-0.04,0.01-0.08,0.02-0.11,0.05c-0.18,0.15-0.24,0.34-0.18,0.58c3.37,13.97,6.66,28.16,9.87,42.58
	C242.99,800.75,242.79,800.98,242.34,801.14z M377.39,743.51l-2.91-12.36c-0.07-0.3-0.37-0.49-0.67-0.41
	c-9.01,2.3-17.5,4.18-25.47,5.63c-0.5,0.09-0.53,0.27-0.09,0.53c2.41,1.42,2.76,6.97,1.13,9.08c-0.82,1.06-1.23,1.91-1.24,2.56
	c-0.01,1.11,0.53,1.55,1.62,1.32l27.25-5.75C377.34,744.04,377.47,743.84,377.39,743.51z M341.84,740.66
	c-5.19-1.68-9.59-3.74-13.2-6.18c-0.31-0.21-0.56-0.15-0.73,0.18c-0.17,0.31-0.15,0.63,0.04,0.94c2.39,3.77,5.83,6.55,10.32,8.36
	c0.98,0.4,2.11,0.19,2.89-0.52l1.07-0.98C343.14,741.63,343.01,741.03,341.84,740.66z M351.12,755.19c-1.32,0.3-1.34,2.17-0.02,2.49
	l10.67,2.57c0.17,0.04,0.35,0.04,0.53,0.01l16.85-3.04c0.72-0.13,1.18-0.83,1.03-1.54l-1.2-5.5c-0.16-0.69-0.85-1.13-1.54-0.97
	L351.12,755.19z M686.92,839.24c5.16-2.74,10.11-5.69,14.85-8.86c0.31-0.21,0.39-0.64,0.18-0.95c-6.01-8.51-12.82-17.31-15.53-26.89
	c-0.52-1.86-1.01-3.73-1.48-5.6c-0.3-1.21-0.5-1.2-0.59,0.05c-0.16,2.15-0.22,4.3-0.18,6.45c0.25,12.26,0.54,24.46,0.85,36.61
	c0.01,0.25,0.3,0.37,0.48,0.2C685.93,839.85,686.4,839.51,686.92,839.24z"/>
<path class="st0" d="M327,274.25c-0.53,3.01-1.09,5.99-1.7,8.92c-0.23,1.15-0.78,2.06-1.63,2.75c-0.22,0.17-0.47,0.28-0.75,0.32
	c-0.95,0.14-1.35-0.27-1.21-1.22c0.78-5.19,1.83-10.35,3.15-15.47c0.15-0.56,0.75-0.88,1.3-0.68l12.51,4.5
	c0.24,0.09,0.37,0.33,0.32,0.57c-1.28,5.59-2.26,11.08-2.93,16.48c-0.65,5.18-8.14,5-6.72,0.01c0.27-0.95,1.27-1.48,2.21-1.17
	c0.44,0.14,0.86,0.14,1.27-0.01c0.29-0.11,0.46-0.31,0.5-0.62l1.72-12.71c0.03-0.26-0.15-0.49-0.41-0.52
	c-2.35-0.27-4.68-0.79-6.99-1.54C327.27,273.75,327.06,273.88,327,274.25z"/>
<path class="st0" d="M691.29,293.63c0,1.37-1.11,2.48-2.48,2.48s-2.48-1.11-2.48-2.48s1.11-2.48,2.48-2.48
	S691.29,292.26,691.29,293.63z"/>
<path class="st0" d="M311.88,298.16c0,1.28-1.03,2.31-2.31,2.31s-2.31-1.03-2.31-2.31s1.03-2.31,2.31-2.31
	S311.88,296.88,311.88,298.16z"/>
<path class="st0" d="M496.58,330.8c0,16.63-13.49,30.12-30.12,30.12s-30.12-13.49-30.12-30.12c0-16.63,13.49-30.12,30.12-30.12
	S496.58,314.17,496.58,330.8z"/>
<path class="st0" d="M583.07,330.73c0,16.59-13.44,30.03-30.03,30.03c-16.59,0-30.03-13.44-30.03-30.03s13.44-30.03,30.03-30.03
	C569.63,300.7,583.07,314.14,583.07,330.73z"/>
<path class="st0" d="M724.18,320.04l2.13,0.17c0.53,0.04,0.78,0.33,0.75,0.86l-0.2,3.27c-0.02,0.38-0.22,0.61-0.59,0.68
	c-1.87,0.37-3.46,0.05-4.77-0.94c-0.3-0.23-0.48-0.52-0.54-0.89l-2.96-19c-0.08-0.49,0.32-0.92,0.81-0.88l15.22,1.03
	c0.36,0.02,0.66,0.3,0.72,0.66c0.71,4.65,1.74,9.27,3.11,13.86c0.49,1.65,0.41,3.46,0.46,5.16c0.02,0.64-0.41,1.21-1.04,1.36
	c-2.18,0.53-6.86-0.12-5.32-3.67c0.15-0.33,0.4-0.51,0.76-0.53c1.29-0.07,1.83-0.84,1.64-2.31c-0.52-4.13-1.28-7.56-2.27-10.31
	c-0.13-0.37-0.4-0.56-0.8-0.56l-9.08-0.05c-0.41,0-0.58,0.2-0.51,0.6l1.82,10.88C723.58,319.8,723.8,320.01,724.18,320.04z"/>
<path class="st0" d="M249.78,365.63c0.5,0.11,0.98-0.25,1.02-0.76l1.66-18.73c0.03-0.36,0.35-0.64,0.71-0.61
	c4.6,0.33,9.09,0.3,13.47-0.09c0.47-0.04,0.86,0.33,0.84,0.8l-0.32,6.62c-0.03,0.66-0.37,0.99-1.03,0.98l-10.18-0.13
	c-0.65-0.01-1.19,0.49-1.25,1.14c-0.3,3.62-0.66,7.26-1.08,10.91c-0.4,3.4-2.17,5.17-5.31,5.3c-1.32,0.06-2.44-0.96-2.51-2.29
	C245.67,366.13,247.43,365.16,249.78,365.63z M265.64,349.13c0.01-0.15-0.11-0.27-0.27-0.27l-9.44-0.1c-0.15,0-0.27,0.12-0.27,0.27
	l-0.01,0.82c-0.01,0.15,0.11,0.27,0.27,0.27l9.44,0.1c0.15,0,0.27-0.12,0.27-0.27L265.64,349.13z"/>
<path class="st0" d="M745.18,367.25l6.63-12.21c0.35-0.65,0.89-0.94,1.62-0.87c0.69,0.06,1.07,0.62,1.14,1.68
	c0.02,0.33-0.07,0.66-0.25,0.93c-3.17,4.94-5.58,10.24-7.23,15.89c-1.08,3.69-3.36,5.52-6.84,5.49c-2.93-0.03-5.42-3.14-4.86-6
	c0.77-3.97,3.4-5.74,7.9-5.29c0.29,0.03,0.54,0.13,0.75,0.32l0.23,0.21C744.64,367.73,744.94,367.68,745.18,367.25z"/>
<path class="st0" d="M308.65,363.3c0.43,0.99-0.12,2.18-1.23,2.66c-1.1,0.48-2.34,0.06-2.78-0.92c-0.43-0.99,0.12-2.18,1.23-2.66
	C306.98,361.9,308.22,362.32,308.65,363.3z"/>
<path class="st0" d="M683.35,386.3c-0.3,0.84-1.22,1.27-2.06,0.98l-0.47-0.17c-0.84-0.3-1.28-1.22-0.98-2.06l0.27-0.77
	c0.3-0.84,1.22-1.27,2.06-0.98l0.47,0.17c0.84,0.3,1.28,1.22,0.98,2.06L683.35,386.3z"/>
<path class="st0" d="M765.17,391.51c0,1.36-1.1,2.46-2.46,2.46c-1.36,0-2.46-1.1-2.46-2.46c0-1.36,1.1-2.46,2.46-2.46
	C764.07,389.05,765.17,390.15,765.17,391.51z"/>
<path class="st0" d="M332.38,415.16c-0.12-1.15-0.38-2.25-0.78-3.29c-1.3-3.39-2.74-7-4.31-10.83c-0.41-0.99-0.1-1.64,0.92-1.95
	l0.34-0.1c0.63-0.19,1.08,0.01,1.35,0.62c1.5,3.36,2.98,6.77,4.43,10.24c1.71,4.06,1.89,7.67,0.56,10.83
	c-1.66,3.92-6.27,6.19-9.95,3.53c-3.99-2.89-2.64-8.36,1.91-9.84c2.18-0.71,3.88-0.39,5.1,0.98
	C332.28,415.72,332.43,415.65,332.38,415.16z"/>
<path class="st0" d="M291.77,405.63c0,1.25-1.01,2.26-2.26,2.26s-2.26-1.01-2.26-2.26s1.01-2.26,2.26-2.26
	S291.77,404.38,291.77,405.63z"/>
<path class="st0" d="M791.79,417.08l1.11,10.29c0.03,0.34-0.12,0.52-0.46,0.53l-1.33,0.08c-0.63,0.03-0.97-0.26-1.03-0.88
	l-1.38-13.41c-0.05-0.51,0.18-0.79,0.69-0.83c5.44-0.39,10.84-1.05,16.21-1.97c0.42-0.07,0.65,0.11,0.68,0.53
	c0.34,4.05,0.85,8,1.54,11.85c0.2,1.15,0.28,2.32,0.24,3.53c-0.01,0.37-0.19,0.62-0.52,0.77c-0.87,0.39-1.84-0.07-1.99-1.04
	c-0.63-3.93-1.2-7.57-1.73-10.92c-0.07-0.47-0.34-0.64-0.8-0.52c-3.24,0.83-6.78,1.26-10.61,1.3
	C791.95,416.39,791.74,416.62,791.79,417.08z"/>
<path class="st0" d="M666.2,433.63l7.38-9.11c0.39-0.48,1.11-0.5,1.53-0.05l0.34,0.35c0.46,0.5,0.48,1.02,0.07,1.55
	c-2.81,3.63-5.42,7.38-7.83,11.25c-1.49,2.38-3.5,3.38-6.04,3c-2.41-0.36-3.61-1.75-3.61-4.16c0-3.23,3.75-4.05,6.37-3.74
	c0.31,0.03,0.54,0.19,0.68,0.47l0.18,0.35C665.53,434.05,665.84,434.08,666.2,433.63z"/>
<path class="st0" d="M716.96,427.57c0,1.08-0.87,1.95-1.95,1.95s-1.95-0.87-1.95-1.95c0-1.08,0.87-1.95,1.95-1.95
	S716.96,426.49,716.96,427.57z"/>
<path class="st0" d="M208.14,430.37c0,1.34-1.08,2.42-2.42,2.42s-2.42-1.08-2.42-2.42s1.08-2.42,2.42-2.42
	S208.14,429.03,208.14,430.37z"/>
<path class="st0" d="M790.02,430.81l2.36-1.49c1.06-0.67,2.46,0.07,2.5,1.33l0.07,2.26c0.02,0.81-0.55,1.51-1.35,1.66l-2.73,0.48
	c-1.16,0.21-2.15-0.85-1.87-1.99l0.31-1.26C789.41,431.39,789.67,431.03,790.02,430.81z"/>
<path class="st0" d="M249.82,443.37c0.37,0.43,0.68,0.39,0.93-0.12l6.41-12.78c0.34-0.67,0.82-0.79,1.44-0.36l0.28,0.2
	c0.71,0.49,0.94,1.43,0.55,2.2c-2.6,5.04-4.69,10.04-6.26,14.99c-1.46,4.58-6.92,9.21-11.33,4.46c-0.81-0.87-1.2-1.93-1.17-3.2
	c0.1-4.57,3.57-6.16,7.54-6.22C248.93,442.53,249.37,442.86,249.82,443.37z"/>
<path class="st0" d="M742.15,464.14c-1.07-0.59-2.22-0.96-3.45-1.12c-1.09-0.15-1.69-0.77-1.8-1.86l-0.18-1.83
	c-0.12-1.17,0.36-1.52,1.44-1.03l7.4,3.33c0.58,0.26,0.94,0.86,0.89,1.5c-0.08,0.97-0.31,1.9-0.7,2.8
	c-1.62,3.71-3.14,7.56-4.55,11.53c-1.18,3.31-3.25,4.97-6.2,4.96c-5.77-0.02-4.99-7.96,1.07-8.23c0.43-0.02,0.76,0.16,0.98,0.54
	c0.18,0.3,0.4,0.56,0.67,0.79c0.49,0.4,0.85,0.3,1.07-0.29l3.73-10.12C742.66,464.74,742.5,464.33,742.15,464.14z"/>
<path class="st0" d="M827.83,480.25c0,1.41-1.15,2.56-2.56,2.56c-1.41,0-2.56-1.15-2.56-2.56s1.15-2.56,2.56-2.56
	C826.68,477.69,827.83,478.84,827.83,480.25z"/>
<path class="st0" d="M192.17,495.31c-0.98-0.35-1.46-1.49-1.08-2.55c0.38-1.06,1.48-1.64,2.46-1.29c0.98,0.35,1.46,1.49,1.08,2.55
	C194.25,495.08,193.15,495.66,192.17,495.31z"/>
<path class="st0" d="M776.79,512.69c-0.53,3.96-0.89,9.51-2.78,13.19c-0.7,1.36-2.47,1.74-3.66,0.78c-1.37-1.1-1.44-2.4-0.21-3.89
	c0.27-0.32,0.61-0.44,1.02-0.36c0.96,0.18,1.5-0.22,1.63-1.21c0.53-4.09,1.02-8.39,1.45-12.89c0.06-0.58,0.63-0.97,1.18-0.8
	l11.39,3.36c0.48,0.15,0.68,0.47,0.59,0.96l-0.31,1.72c-0.1,0.53-0.63,0.87-1.15,0.73l-8.23-2.2
	C777.17,511.93,776.86,512.14,776.79,512.69z"/>
<path class="st0" d="M830.2,564.96l-0.06-1.55c-0.04-0.91,0.77-1.62,1.67-1.47l1.31,0.23c0.83,0.15,1.36,0.97,1.13,1.79l-0.25,0.9
	c-0.11,0.42-0.42,0.77-0.82,0.94l-1,0.42C831.27,566.6,830.24,565.95,830.2,564.96z"/>
<path class="st0" d="M949.96,574.71c0.62,4.47-3.26,8.69-8.66,9.44c-5.4,0.75-10.29-2.26-10.91-6.72c-0.62-4.47,3.26-8.69,8.66-9.44
	C944.45,567.24,949.34,570.25,949.96,574.71z"/>
<path class="st0" d="M957.63,661.27c1.17,4.59-2.13,9.39-7.36,10.72c-5.24,1.34-10.43-1.3-11.59-5.89
	c-1.17-4.59,2.13-9.39,7.36-10.72C951.27,654.05,956.46,656.69,957.63,661.27z"/>
<path class="st0" d="M546.61,702.63c-1.02-0.01-1.83-1.09-1.81-2.4c0.02-1.32,0.85-2.37,1.87-2.36c1.02,0.01,1.83,1.09,1.81,2.4
	C548.46,701.59,547.63,702.64,546.61,702.63z"/>
<path class="st0" d="M503.99,714.2c-2.51-1.23-3.46-4.44-2.12-7.17c1.33-2.72,4.45-3.94,6.96-2.71c2.51,1.23,3.46,4.44,2.12,7.17
	C509.62,714.21,506.5,715.43,503.99,714.2z"/>
<path class="st0" d="M459.82,720.35c0,2.93-2.37,5.3-5.3,5.3c-2.93,0-5.3-2.37-5.3-5.3c0-2.93,2.37-5.3,5.3-5.3
	C457.45,715.05,459.82,717.42,459.82,720.35z"/>
</svg>
